<svg xmlns="http://www.w3.org/2000/svg" xmlns:xlink="http://www.w3.org/1999/xlink" viewBox="0 0 214.06 148.32"><defs><style>.cls-1{fill:url(#linear-gradient);}.cls-2{fill:url(#linear-gradient-2);}.cls-3{fill:url(#linear-gradient-3);}.cls-4{fill:url(#linear-gradient-4);}.cls-5{fill:url(#linear-gradient-5);}.cls-6{fill:url(#radial-gradient);}.cls-7{fill:url(#radial-gradient-2);}.cls-8{fill:url(#radial-gradient-3);}.cls-9{fill:url(#linear-gradient-6);}.cls-10{fill:url(#linear-gradient-7);}.cls-11{fill:url(#linear-gradient-8);}.cls-12{fill:url(#linear-gradient-9);}.cls-13{fill:url(#linear-gradient-10);}.cls-14{fill:url(#radial-gradient-4);}.cls-15{fill:url(#radial-gradient-5);}.cls-16{fill:url(#radial-gradient-6);}</style><linearGradient id="linear-gradient" x1="21.55" y1="110.33" x2="101.69" y2="27.11" gradientUnits="userSpaceOnUse"><stop offset="0" stop-color="#fb5507"/><stop offset="0.31" stop-color="#fe9c0a"/><stop offset="1" stop-color="#ff006c"/></linearGradient><linearGradient id="linear-gradient-2" x1="91.52" y1="114.12" x2="22.17" y2="115.28" gradientUnits="userSpaceOnUse"><stop offset="0" stop-color="#fe9c0a"/><stop offset="0.3" stop-color="#ffbf0b"/><stop offset="1" stop-color="#fb5507"/></linearGradient><linearGradient id="linear-gradient-3" x1="25.88" y1="112.88" x2="101.58" y2="114.8" xlink:href="#linear-gradient"/><linearGradient id="linear-gradient-4" x1="101.2" y1="64.6" x2="-49.82" y2="-19.39" xlink:href="#linear-gradient-2"/><linearGradient id="linear-gradient-5" x1="39.63" y1="37.33" x2="13.05" y2="122.09" xlink:href="#linear-gradient-2"/><radialGradient id="radial-gradient" cx="38.47" cy="62.32" r="9.52" gradientUnits="userSpaceOnUse"><stop offset="0" stop-color="#ffbf0b"/><stop offset="1" stop-color="#fb5507"/></radialGradient><radialGradient id="radial-gradient-2" cx="61.58" cy="62.32" r="9.52" xlink:href="#radial-gradient"/><radialGradient id="radial-gradient-3" cx="84.7" cy="62.32" r="9.52" xlink:href="#radial-gradient"/><linearGradient id="linear-gradient-6" x1="908.06" y1="128.43" x2="988.19" y2="45.21" gradientTransform="matrix(-1, 0, 0, 1, 1100.56, 0)" gradientUnits="userSpaceOnUse"><stop offset="0" stop-color="#1d4dda"/><stop offset="0.3" stop-color="#3887fe"/><stop offset="1" stop-color="#5100bd"/></linearGradient><linearGradient id="linear-gradient-7" x1="1020.91" y1="106.47" x2="892.88" y2="154.24" gradientTransform="matrix(-1, 0, 0, 1, 1100.56, 0)" gradientUnits="userSpaceOnUse"><stop offset="0" stop-color="#4728ff"/><stop offset="0.31" stop-color="#9125ff"/><stop offset="1" stop-color="#5100bd"/></linearGradient><linearGradient id="linear-gradient-8" x1="874.21" y1="135.14" x2="1006.36" y2="131.28" xlink:href="#linear-gradient-6"/><linearGradient id="linear-gradient-9" x1="987.71" y1="82.7" x2="836.68" y2="-1.29" xlink:href="#linear-gradient-6"/><linearGradient id="linear-gradient-10" x1="926.14" y1="55.43" x2="899.56" y2="140.19" xlink:href="#linear-gradient-7"/><radialGradient id="radial-gradient-4" cx="122.2" cy="77.8" r="10.96" gradientUnits="userSpaceOnUse"><stop offset="0" stop-color="#9125ff"/><stop offset="1" stop-color="#5100bd"/></radialGradient><radialGradient id="radial-gradient-5" cx="145.32" cy="77.8" r="10.96" xlink:href="#radial-gradient-4"/><radialGradient id="radial-gradient-6" cx="170.95" cy="80.62" r="6.86" xlink:href="#radial-gradient-4"/></defs><g id="Layer_2" data-name="Layer 2"><g id="OBJECTS"><path class="cls-1" d="M62.42,112l-.93,0c-.89-.07-1.77-.17-2.65-.28l-.92-.14a46.54,46.54,0,0,1-17.29-6.24L19,111.07l5.8-21.63a46.71,46.71,0,0,1-6.24-17.25c0-.33-.1-.67-.14-1-.11-.85-.21-1.71-.28-2.57,0-.36,0-.73-.05-1.09a46.93,46.93,0,0,1,80.1-35.64L111.07,19a65.11,65.11,0,1,0,0,92.22L98.19,98.35A46.83,46.83,0,0,1,62.42,112Z"/><path class="cls-2" d="M62.42,112l-.93,0c-.89-.07-1.77-.17-2.65-.28l-.92-.14a46.54,46.54,0,0,1-17.29-6.24L19,111.07v0l0,0,.09.09a65.11,65.11,0,0,0,92,.07L98.19,98.35A46.83,46.83,0,0,1,62.42,112Z"/><path class="cls-3" d="M111.07,111.22,98.19,98.35l-.11.1A58.19,58.19,0,0,1,18.75,110.8c.12.12.21.24.32.35A65.11,65.11,0,0,0,111.07,111.22Z"/><path class="cls-4" d="M111.07,19,98.18,31.88A54.71,54.71,0,0,0,.07,62.3,65.11,65.11,0,0,1,111.07,19Z"/><path class="cls-5" d="M24.81,89.37A46.89,46.89,0,0,1,65,18.16c1.55,0,3.09.09,4.6.24A57.22,57.22,0,0,0,19,111.05Z"/><circle class="cls-6" cx="41.84" cy="65.11" r="5.78"/><path class="cls-7" d="M70.73,65.11A5.78,5.78,0,1,1,65,59.33,5.77,5.77,0,0,1,70.73,65.11Z"/><path class="cls-8" d="M93.85,65.11a5.78,5.78,0,1,1-5.78-5.78A5.78,5.78,0,0,1,93.85,65.11Z"/><path class="cls-9" d="M151.64,130.07l.93,0c.88-.07,1.76-.17,2.64-.28l.93-.14a46.6,46.6,0,0,0,17.29-6.24l21.62,5.8-5.79-21.63a46.75,46.75,0,0,0,6.23-17.25c.06-.33.11-.67.15-1,.11-.85.21-1.71.27-2.57,0-.36,0-.73.06-1.09A46.94,46.94,0,0,0,115.86,50L103,37.1a65.11,65.11,0,1,1,0,92.22l12.87-12.87A46.85,46.85,0,0,0,151.64,130.07Z"/><path class="cls-10" d="M151.64,130.07l.93,0c.88-.07,1.76-.17,2.64-.28l.93-.14a46.6,46.6,0,0,0,17.29-6.24l21.62,5.8v0l0,0-.08.09a65.11,65.11,0,0,1-92,.07l12.87-12.87A46.85,46.85,0,0,0,151.64,130.07Z"/><path class="cls-11" d="M103,129.32l12.87-12.87a.52.52,0,0,1,.11.1A58.19,58.19,0,0,0,195.3,128.9c-.11.11-.2.24-.31.35A65.11,65.11,0,0,1,103,129.32Z"/><path class="cls-12" d="M103,37.09,115.87,50A54.71,54.71,0,0,1,214,80.4,65.11,65.11,0,0,0,103,37.09Z"/><path class="cls-13" d="M189.24,107.47A46.88,46.88,0,0,0,149.1,36.26c-1.55,0-3.09.09-4.61.23a57.23,57.23,0,0,1,50.56,92.65Z"/><path class="cls-14" d="M120.21,83.21A5.78,5.78,0,1,0,126,77.43,5.77,5.77,0,0,0,120.21,83.21Z"/><path class="cls-15" d="M143.32,83.21a5.78,5.78,0,1,0,5.78-5.78A5.78,5.78,0,0,0,143.32,83.21Z"/><path class="cls-16" d="M166.44,83.21a5.78,5.78,0,1,0,5.78-5.78A5.78,5.78,0,0,0,166.44,83.21Z"/></g></g></svg>